<svg xmlns="http://www.w3.org/2000/svg" viewBox="0 0 800 500">
<defs><linearGradient id="bg" x1="0" y1="0" x2="1" y2="1"><stop stop-color="#071018"/><stop offset="1" stop-color="#152435"/></linearGradient><filter id="glow"><feGaussianBlur stdDeviation="7" result="b"/><feMerge><feMergeNode in="b"/><feMergeNode in="SourceGraphic"/></feMerge></filter></defs>
<rect width="800" height="500" rx="26" fill="url(#bg)"/>
<g opacity=".16" stroke="#8db6d1"><path d="M0 0V500"/><path d="M50 0V500"/><path d="M100 0V500"/><path d="M150 0V500"/><path d="M200 0V500"/><path d="M250 0V500"/><path d="M300 0V500"/><path d="M350 0V500"/><path d="M400 0V500"/><path d="M450 0V500"/><path d="M500 0V500"/><path d="M550 0V500"/><path d="M600 0V500"/><path d="M650 0V500"/><path d="M700 0V500"/><path d="M750 0V500"/><path d="M800 0V500"/><path d="M0 0H800"/><path d="M0 50H800"/><path d="M0 100H800"/><path d="M0 150H800"/><path d="M0 200H800"/><path d="M0 250H800"/><path d="M0 300H800"/><path d="M0 350H800"/><path d="M0 400H800"/><path d="M0 450H800"/><path d="M0 500H800"/></g><circle cx="70" cy="75" r="5" fill="#54be85" opacity=".85"/><circle cx="123" cy="166" r="7" fill="#a9b3bb" opacity=".85"/><circle cx="176" cy="257" r="9" fill="#6fc8ff" opacity=".85"/><circle cx="229" cy="348" r="11" fill="#d1a85e" opacity=".85"/><circle cx="282" cy="99" r="13" fill="#54be85" opacity=".85"/><circle cx="335" cy="190" r="15" fill="#a9b3bb" opacity=".85"/><circle cx="388" cy="281" r="17" fill="#6fc8ff" opacity=".85"/><circle cx="441" cy="372" r="5" fill="#d1a85e" opacity=".85"/><circle cx="494" cy="123" r="7" fill="#54be85" opacity=".85"/><circle cx="547" cy="214" r="9" fill="#a9b3bb" opacity=".85"/><circle cx="600" cy="305" r="11" fill="#6fc8ff" opacity=".85"/><circle cx="653" cy="396" r="13" fill="#d1a85e" opacity=".85"/><circle cx="706" cy="147" r="15" fill="#54be85" opacity=".85"/><circle cx="99" cy="238" r="17" fill="#a9b3bb" opacity=".85"/><circle cx="152" cy="329" r="5" fill="#6fc8ff" opacity=".85"/><circle cx="205" cy="80" r="7" fill="#d1a85e" opacity=".85"/><circle cx="258" cy="171" r="9" fill="#54be85" opacity=".85"/><circle cx="311" cy="262" r="11" fill="#a9b3bb" opacity=".85"/><circle cx="364" cy="353" r="13" fill="#6fc8ff" opacity=".85"/><circle cx="417" cy="104" r="15" fill="#d1a85e" opacity=".85"/><circle cx="470" cy="195" r="17" fill="#54be85" opacity=".85"/><circle cx="523" cy="286" r="5" fill="#a9b3bb" opacity=".85"/><circle cx="576" cy="377" r="7" fill="#6fc8ff" opacity=".85"/><circle cx="629" cy="128" r="9" fill="#d1a85e" opacity=".85"/><circle cx="682" cy="219" r="11" fill="#54be85" opacity=".85"/><circle cx="75" cy="310" r="13" fill="#a9b3bb" opacity=".85"/><circle cx="128" cy="401" r="15" fill="#6fc8ff" opacity=".85"/><circle cx="181" cy="152" r="17" fill="#d1a85e" opacity=".85"/><circle cx="234" cy="243" r="5" fill="#54be85" opacity=".85"/><circle cx="287" cy="334" r="7" fill="#a9b3bb" opacity=".85"/><circle cx="340" cy="85" r="9" fill="#6fc8ff" opacity=".85"/><circle cx="393" cy="176" r="11" fill="#d1a85e" opacity=".85"/><circle cx="446" cy="267" r="13" fill="#54be85" opacity=".85"/><circle cx="499" cy="358" r="15" fill="#a9b3bb" opacity=".85"/><circle cx="552" cy="109" r="17" fill="#6fc8ff" opacity=".85"/><circle cx="605" cy="200" r="5" fill="#d1a85e" opacity=".85"/><circle cx="658" cy="291" r="7" fill="#54be85" opacity=".85"/><circle cx="711" cy="382" r="9" fill="#a9b3bb" opacity=".85"/><circle cx="104" cy="133" r="11" fill="#6fc8ff" opacity=".85"/><circle cx="157" cy="224" r="13" fill="#d1a85e" opacity=".85"/><circle cx="210" cy="315" r="15" fill="#54be85" opacity=".85"/><circle cx="263" cy="406" r="17" fill="#a9b3bb" opacity=".85"/><circle cx="316" cy="157" r="5" fill="#6fc8ff" opacity=".85"/><circle cx="369" cy="248" r="7" fill="#d1a85e" opacity=".85"/><circle cx="422" cy="339" r="9" fill="#54be85" opacity=".85"/><circle cx="475" cy="90" r="11" fill="#a9b3bb" opacity=".85"/><circle cx="528" cy="181" r="13" fill="#6fc8ff" opacity=".85"/><circle cx="581" cy="272" r="15" fill="#d1a85e" opacity=".85"/><circle cx="634" cy="363" r="17" fill="#54be85" opacity=".85"/><circle cx="687" cy="114" r="5" fill="#a9b3bb" opacity=".85"/><circle cx="80" cy="205" r="7" fill="#6fc8ff" opacity=".85"/><circle cx="133" cy="296" r="9" fill="#d1a85e" opacity=".85"/><circle cx="186" cy="387" r="11" fill="#54be85" opacity=".85"/><circle cx="239" cy="138" r="13" fill="#a9b3bb" opacity=".85"/><circle cx="292" cy="229" r="15" fill="#6fc8ff" opacity=".85"/><circle cx="345" cy="320" r="17" fill="#d1a85e" opacity=".85"/><circle cx="398" cy="411" r="5" fill="#54be85" opacity=".85"/><circle cx="451" cy="162" r="7" fill="#a9b3bb" opacity=".85"/><circle cx="504" cy="253" r="9" fill="#6fc8ff" opacity=".85"/><circle cx="557" cy="344" r="11" fill="#d1a85e" opacity=".85"/><circle cx="610" cy="95" r="13" fill="#54be85" opacity=".85"/><circle cx="663" cy="186" r="15" fill="#a9b3bb" opacity=".85"/><circle cx="716" cy="277" r="17" fill="#6fc8ff" opacity=".85"/><circle cx="109" cy="368" r="5" fill="#d1a85e" opacity=".85"/><circle cx="162" cy="119" r="7" fill="#54be85" opacity=".85"/><circle cx="215" cy="210" r="9" fill="#a9b3bb" opacity=".85"/><circle cx="268" cy="301" r="11" fill="#6fc8ff" opacity=".85"/><circle cx="321" cy="392" r="13" fill="#d1a85e" opacity=".85"/><circle cx="374" cy="143" r="15" fill="#54be85" opacity=".85"/><circle cx="427" cy="234" r="17" fill="#a9b3bb" opacity=".85"/><circle cx="480" cy="325" r="5" fill="#6fc8ff" opacity=".85"/><circle cx="533" cy="76" r="7" fill="#d1a85e" opacity=".85"/><circle cx="586" cy="167" r="9" fill="#54be85" opacity=".85"/><circle cx="639" cy="258" r="11" fill="#a9b3bb" opacity=".85"/><circle cx="692" cy="349" r="13" fill="#6fc8ff" opacity=".85"/><circle cx="85" cy="100" r="15" fill="#d1a85e" opacity=".85"/><circle cx="138" cy="191" r="17" fill="#54be85" opacity=".85"/><circle cx="191" cy="282" r="5" fill="#a9b3bb" opacity=".85"/><circle cx="244" cy="373" r="7" fill="#6fc8ff" opacity=".85"/><circle cx="297" cy="124" r="9" fill="#d1a85e" opacity=".85"/><circle cx="350" cy="215" r="11" fill="#54be85" opacity=".85"/><circle cx="403" cy="306" r="13" fill="#a9b3bb" opacity=".85"/><circle cx="456" cy="397" r="15" fill="#6fc8ff" opacity=".85"/><circle cx="509" cy="148" r="17" fill="#d1a85e" opacity=".85"/><circle cx="562" cy="239" r="5" fill="#54be85" opacity=".85"/><circle cx="615" cy="330" r="7" fill="#a9b3bb" opacity=".85"/><circle cx="668" cy="81" r="9" fill="#6fc8ff" opacity=".85"/><circle cx="721" cy="172" r="11" fill="#d1a85e" opacity=".85"/><circle cx="114" cy="263" r="13" fill="#54be85" opacity=".85"/><circle cx="167" cy="354" r="15" fill="#a9b3bb" opacity=".85"/><circle cx="220" cy="105" r="17" fill="#6fc8ff" opacity=".85"/><circle cx="273" cy="196" r="5" fill="#d1a85e" opacity=".85"/><circle cx="326" cy="287" r="7" fill="#54be85" opacity=".85"/><circle cx="379" cy="378" r="9" fill="#a9b3bb" opacity=".85"/><circle cx="432" cy="129" r="11" fill="#6fc8ff" opacity=".85"/><circle cx="485" cy="220" r="13" fill="#d1a85e" opacity=".85"/><circle cx="538" cy="311" r="15" fill="#54be85" opacity=".85"/><circle cx="591" cy="402" r="17" fill="#a9b3bb" opacity=".85"/><circle cx="644" cy="153" r="5" fill="#6fc8ff" opacity=".85"/><circle cx="697" cy="244" r="7" fill="#d1a85e" opacity=".85"/><circle cx="90" cy="335" r="9" fill="#54be85" opacity=".85"/><circle cx="143" cy="86" r="11" fill="#a9b3bb" opacity=".85"/><circle cx="196" cy="177" r="13" fill="#6fc8ff" opacity=".85"/><circle cx="249" cy="268" r="15" fill="#d1a85e" opacity=".85"/><circle cx="302" cy="359" r="17" fill="#54be85" opacity=".85"/><circle cx="355" cy="110" r="5" fill="#a9b3bb" opacity=".85"/><circle cx="408" cy="201" r="7" fill="#6fc8ff" opacity=".85"/><circle cx="461" cy="292" r="9" fill="#d1a85e" opacity=".85"/><circle cx="514" cy="383" r="11" fill="#54be85" opacity=".85"/><circle cx="567" cy="134" r="13" fill="#a9b3bb" opacity=".85"/><rect x="30" y="28" width="740" height="58" rx="18" fill="#0c151e" opacity=".88"/><text x="55" y="67" fill="#edf5fa" font-size="30" font-family="Arial" font-weight="700">Dry Powder Mixture</text></svg>