<svg xmlns="http://www.w3.org/2000/svg" viewBox="0 0 800 500">
<defs><linearGradient id="bg" x1="0" y1="0" x2="1" y2="1"><stop stop-color="#071018"/><stop offset="1" stop-color="#152435"/></linearGradient><filter id="glow"><feGaussianBlur stdDeviation="7" result="b"/><feMerge><feMergeNode in="b"/><feMergeNode in="SourceGraphic"/></feMerge></filter></defs>
<rect width="800" height="500" rx="26" fill="url(#bg)"/>
<g opacity=".16" stroke="#8db6d1"><path d="M0 0V500"/><path d="M50 0V500"/><path d="M100 0V500"/><path d="M150 0V500"/><path d="M200 0V500"/><path d="M250 0V500"/><path d="M300 0V500"/><path d="M350 0V500"/><path d="M400 0V500"/><path d="M450 0V500"/><path d="M500 0V500"/><path d="M550 0V500"/><path d="M600 0V500"/><path d="M650 0V500"/><path d="M700 0V500"/><path d="M750 0V500"/><path d="M800 0V500"/><path d="M0 0H800"/><path d="M0 50H800"/><path d="M0 100H800"/><path d="M0 150H800"/><path d="M0 200H800"/><path d="M0 250H800"/><path d="M0 300H800"/><path d="M0 350H800"/><path d="M0 400H800"/><path d="M0 450H800"/><path d="M0 500H800"/></g><circle cx="110" cy="260" r="28" fill="#9b75d5" filter="url(#glow)"/><line x1="110" y1="260" x2="190" y2="150" stroke="#cbd7df" stroke-width="10" opacity=".65"/><circle cx="190" cy="150" r="32" fill="#67d0a0" filter="url(#glow)"/><line x1="190" y1="150" x2="285" y2="250" stroke="#cbd7df" stroke-width="10" opacity=".65"/><circle cx="285" cy="250" r="36" fill="#efb85c" filter="url(#glow)"/><line x1="285" y1="250" x2="390" y2="135" stroke="#cbd7df" stroke-width="10" opacity=".65"/><circle cx="390" cy="135" r="28" fill="#6fc8ff" filter="url(#glow)"/><line x1="390" y1="135" x2="500" y2="235" stroke="#cbd7df" stroke-width="10" opacity=".65"/><circle cx="500" cy="235" r="32" fill="#9b75d5" filter="url(#glow)"/><line x1="500" y1="235" x2="620" y2="145" stroke="#cbd7df" stroke-width="10" opacity=".65"/><circle cx="620" cy="145" r="36" fill="#67d0a0" filter="url(#glow)"/><line x1="620" y1="145" x2="355" y2="365" stroke="#cbd7df" stroke-width="10" opacity=".65"/><circle cx="355" cy="365" r="28" fill="#efb85c" filter="url(#glow)"/><line x1="355" y1="365" x2="555" y2="365" stroke="#cbd7df" stroke-width="10" opacity=".65"/><circle cx="555" cy="365" r="32" fill="#6fc8ff" filter="url(#glow)"/><g opacity=".8"><rect x="80" y="355" width="42" height="70" rx="10" fill="#c7c18b"/><rect x="135" y="355" width="42" height="70" rx="10" fill="#c7c18b"/><rect x="190" y="355" width="42" height="70" rx="10" fill="#c7c18b"/><rect x="245" y="355" width="42" height="70" rx="10" fill="#c7c18b"/><rect x="300" y="355" width="42" height="70" rx="10" fill="#c7c18b"/><rect x="355" y="355" width="42" height="70" rx="10" fill="#c7c18b"/><rect x="410" y="355" width="42" height="70" rx="10" fill="#c7c18b"/><rect x="465" y="355" width="42" height="70" rx="10" fill="#c7c18b"/><rect x="520" y="355" width="42" height="70" rx="10" fill="#c7c18b"/><rect x="575" y="355" width="42" height="70" rx="10" fill="#c7c18b"/><rect x="630" y="355" width="42" height="70" rx="10" fill="#c7c18b"/><rect x="685" y="355" width="42" height="70" rx="10" fill="#c7c18b"/></g><rect x="30" y="28" width="740" height="58" rx="18" fill="#0c151e" opacity=".88"/><text x="55" y="67" fill="#edf5fa" font-size="30" font-family="Arial" font-weight="700">PP / Cellulose Interface</text></svg>