<svg xmlns="http://www.w3.org/2000/svg" viewBox="0 0 800 500">
<defs><linearGradient id="bg" x1="0" y1="0" x2="1" y2="1"><stop stop-color="#071018"/><stop offset="1" stop-color="#152435"/></linearGradient><filter id="glow"><feGaussianBlur stdDeviation="7" result="b"/><feMerge><feMergeNode in="b"/><feMergeNode in="SourceGraphic"/></feMerge></filter></defs>
<rect width="800" height="500" rx="26" fill="url(#bg)"/>
<g opacity=".16" stroke="#8db6d1"><path d="M0 0V500"/><path d="M50 0V500"/><path d="M100 0V500"/><path d="M150 0V500"/><path d="M200 0V500"/><path d="M250 0V500"/><path d="M300 0V500"/><path d="M350 0V500"/><path d="M400 0V500"/><path d="M450 0V500"/><path d="M500 0V500"/><path d="M550 0V500"/><path d="M600 0V500"/><path d="M650 0V500"/><path d="M700 0V500"/><path d="M750 0V500"/><path d="M800 0V500"/><path d="M0 0H800"/><path d="M0 50H800"/><path d="M0 100H800"/><path d="M0 150H800"/><path d="M0 200H800"/><path d="M0 250H800"/><path d="M0 300H800"/><path d="M0 350H800"/><path d="M0 400H800"/><path d="M0 450H800"/><path d="M0 500H800"/></g><g filter="url(#glow)"><rect x="270" y="140" width="260" height="210" rx="18" fill="#6f7c87"/><rect x="320" y="180" width="160" height="130" rx="12" fill="#ff8b42"/><g stroke="#d7e9f4" stroke-width="8"><path d="M40 180H270"/><path d="M40 198H270"/><path d="M40 216H270"/><path d="M40 234H270"/><path d="M40 252H270"/><path d="M40 270H270"/><path d="M40 288H270"/><path d="M40 306H270"/><path d="M530 180H760"/><path d="M530 198H760"/><path d="M530 216H760"/><path d="M530 234H760"/><path d="M530 252H760"/><path d="M530 270H760"/><path d="M530 288H760"/><path d="M530 306H760"/></g></g><rect x="30" y="28" width="740" height="58" rx="18" fill="#0c151e" opacity=".88"/><text x="55" y="67" fill="#edf5fa" font-size="30" font-family="Arial" font-weight="700">Pultrusion Digital Twin</text></svg>